<?xml version="1.0" encoding="UTF-8"?>
<svg xmlns="http://www.w3.org/2000/svg" xmlns:xlink="http://www.w3.org/1999/xlink" version="1.1" id="Layer_1" x="0px" y="0px" viewBox="0 0 32 32" style="enable-background:new 0 0 32 32;" xml:space="preserve">
<style type="text/css">
	.st0{fill:#E41844;}
</style>
<path class="st0" d="M31.2,18.3c-0.5-0.6-0.8-1.4-0.8-2.1s0.2-1.6,0.7-2.1c0.2-0.2,0.3-0.5,0.4-0.8c0.1-0.3,0.1-0.6,0-0.9  c-0.2-0.9-0.5-1.7-0.8-2.6C30.3,9,30,8.2,29.6,7.5c-0.2-0.2-0.4-0.5-0.7-0.7c-0.2-0.2-0.6-0.2-0.8-0.2c-0.7-0.1-1.5-0.4-2-0.9  c-0.6-0.6-0.8-1.3-0.9-2.1c0-0.3-0.1-0.6-0.2-0.9c-0.2-0.2-0.3-0.5-0.7-0.7c-0.7-0.4-1.4-0.8-2.1-1.2c-0.8-0.3-1.6-0.7-2.5-0.8  c-0.3-0.1-0.6-0.1-0.9,0c-0.3,0.1-0.6,0.2-0.8,0.4c-0.6,0.5-1.3,0.8-2.1,0.8c-0.7,0-1.5-0.2-2.1-0.8c-0.2-0.2-0.5-0.3-0.8-0.4  c-0.3-0.1-0.6-0.1-0.9,0c-0.8,0.2-1.7,0.5-2.5,0.8C8.9,1.3,8.3,1.6,7.6,2.1C7.3,2.3,7.1,2.5,6.9,2.7C6.8,3,6.7,3.3,6.7,3.6  C6.6,4.4,6.3,5.1,5.8,5.7c-0.6,0.6-1.3,0.9-2.1,1c-0.2,0-0.6,0.1-0.8,0.2C2.7,7,2.4,7.2,2.3,7.5C1.9,8.2,1.5,9,1.2,9.7  c-0.3,0.8-0.7,1.7-0.8,2.6c-0.1,0.2-0.1,0.6,0,0.8s0.2,0.6,0.4,0.7c0.5,0.6,0.8,1.4,0.8,2.1c0,0.8-0.3,1.6-0.8,2.1  c-0.2,0.2-0.3,0.5-0.4,0.7c-0.1,0.2-0.1,0.6,0,0.8c0.2,0.9,0.5,1.8,0.8,2.6s0.7,1.6,1.2,2.2c0.2,0.2,0.3,0.4,0.6,0.6  c0.2,0.2,0.5,0.2,0.8,0.2c0.7,0,1.5,0.4,2.1,0.9c0.6,0.6,0.8,1.3,0.9,2.1c0,0.3,0.1,0.6,0.2,0.9c0.2,0.2,0.3,0.5,0.7,0.7  c0.7,0.4,1.4,0.8,2.1,1.2c0.8,0.3,1.6,0.7,2.5,0.8c0.3,0.1,0.6,0.1,0.9,0s0.6-0.2,0.8-0.4c0.6-0.5,1.3-0.8,2.1-0.8  c0.7,0,1.5,0.2,2.1,0.8c0.2,0.2,0.5,0.3,0.8,0.4s0.6,0.1,0.9,0c0.8-0.2,1.7-0.5,2.5-0.8c0.7-0.3,1.5-0.7,2.1-1.2  c0.2-0.2,0.5-0.4,0.7-0.7c0.2-0.2,0.2-0.6,0.2-0.9c0.1-0.7,0.4-1.5,0.9-2.1c0.6-0.6,1.3-0.9,2.1-0.9c0.2,0,0.6-0.1,0.8-0.2  c0.2-0.2,0.4-0.3,0.6-0.6c0.4-0.7,0.8-1.5,1.2-2.2c0.3-0.8,0.7-1.7,0.8-2.6c0.1-0.2,0.1-0.6,0-0.8C31.5,18.8,31.4,18.5,31.2,18.3z   M24.7,25.2c-1.2,1.2-2.6,2.1-4,2.8c-1.5,0.6-3.1,0.9-4.8,0.9s-3.3-0.3-4.8-1c-1.5-0.7-2.9-1.6-4-2.8C6,23.9,5,22.5,4.4,21  c-0.6-1.5-0.9-3.2-0.9-4.9s0.3-3.4,0.9-4.9C5,9.7,6,8.3,7.1,7.1s2.6-2.1,4-2.8c1.6-0.7,3.1-1,4.8-1s3.3,0.3,4.8,1  c1.5,0.7,2.9,1.6,4,2.8c1.2,1.2,2.1,2.6,2.7,4.1s1,3.2,0.9,4.9c0,1.6-0.3,3.4-0.9,4.9C26.9,22.5,26,23.9,24.7,25.2z M15.9,8.4  c-1,0-2,0.2-2.9,0.6c-0.9,0.4-1.7,1-2.5,1.6c-0.7,0.7-1.2,1.6-1.6,2.6c-0.4,0.9-0.6,2-0.6,3c0,2.1,0.8,4,2.3,5.4  C12,23,14,23.8,16,23.8h1.2c0.1,0,0.2-0.1,0.2-0.1c0.1-0.1,0.1-0.2,0.1-0.2v-2.7c0-0.1,0-0.2-0.1-0.2c-0.1-0.1-0.2-0.1-0.2-0.1H16  c-1.1,0-2.1-0.4-2.9-1.2c-0.7-0.7-1.2-1.7-1.3-2.8c0-0.6,0.1-1.2,0.2-1.7c0.2-0.6,0.5-1.1,0.9-1.5s0.9-0.7,1.4-1  c0.5-0.2,1.1-0.3,1.6-0.3c1.1,0.1,2.1,0.5,2.9,1.3c0.7,0.8,1.2,1.9,1.2,3v7.2c0,0.1,0,0.1,0,0.2s0.1,0.1,0.1,0.2  c0,0,0.1,0.1,0.2,0.1s0.1,0,0.2,0h2.6c0.1,0,0.2-0.1,0.2-0.1c0.1-0.1,0.1-0.2,0.1-0.2v-7.2c0-2.1-0.7-4-2.1-5.5  C19.9,9.3,18,8.5,15.9,8.4L15.9,8.4z"></path>
</svg>
